<svg width="161" height="46" viewBox="0 0 161 46" fill="none" xmlns="http://www.w3.org/2000/svg">
<path d="M58.3463 17.436V30H55.8263V21.828L52.4603 30H50.5523L47.1683 21.828V30H44.6483V17.436H47.5103L51.5063 26.778L55.5023 17.436H58.3463ZM65.2657 30.162C64.3057 30.162 63.4417 29.952 62.6737 29.532C61.9057 29.1 61.2997 28.494 60.8557 27.714C60.4237 26.934 60.2077 26.034 60.2077 25.014C60.2077 23.994 60.4297 23.094 60.8737 22.314C61.3297 21.534 61.9477 20.934 62.7277 20.514C63.5077 20.082 64.3777 19.866 65.3377 19.866C66.2977 19.866 67.1677 20.082 67.9477 20.514C68.7277 20.934 69.3397 21.534 69.7837 22.314C70.2397 23.094 70.4677 23.994 70.4677 25.014C70.4677 26.034 70.2337 26.934 69.7657 27.714C69.3097 28.494 68.6857 29.1 67.8937 29.532C67.1137 29.952 66.2377 30.162 65.2657 30.162ZM65.2657 27.966C65.7217 27.966 66.1477 27.858 66.5437 27.642C66.9517 27.414 67.2757 27.078 67.5157 26.634C67.7557 26.19 67.8757 25.65 67.8757 25.014C67.8757 24.066 67.6237 23.34 67.1197 22.836C66.6277 22.32 66.0217 22.062 65.3017 22.062C64.5817 22.062 63.9757 22.32 63.4837 22.836C63.0037 23.34 62.7637 24.066 62.7637 25.014C62.7637 25.962 62.9977 26.694 63.4657 27.21C63.9457 27.714 64.5457 27.966 65.2657 27.966ZM71.6682 24.978C71.6682 23.97 71.8662 23.076 72.2622 22.296C72.6702 21.516 73.2222 20.916 73.9182 20.496C74.6142 20.076 75.3882 19.866 76.2402 19.866C76.8882 19.866 77.5062 20.01 78.0942 20.298C78.6822 20.574 79.1502 20.946 79.4982 21.414V16.68H82.0542V30H79.4982V28.524C79.1862 29.016 78.7482 29.412 78.1842 29.712C77.6202 30.012 76.9662 30.162 76.2222 30.162C75.3822 30.162 74.6142 29.946 73.9182 29.514C73.2222 29.082 72.6702 28.476 72.2622 27.696C71.8662 26.904 71.6682 25.998 71.6682 24.978ZM79.5162 25.014C79.5162 24.402 79.3962 23.88 79.1562 23.448C78.9162 23.004 78.5922 22.668 78.1842 22.44C77.7762 22.2 77.3382 22.08 76.8702 22.08C76.4022 22.08 75.9702 22.194 75.5742 22.422C75.1782 22.65 74.8542 22.986 74.6022 23.43C74.3622 23.862 74.2422 24.378 74.2422 24.978C74.2422 25.578 74.3622 26.106 74.6022 26.562C74.8542 27.006 75.1782 27.348 75.5742 27.588C75.9822 27.828 76.4142 27.948 76.8702 27.948C77.3382 27.948 77.7762 27.834 78.1842 27.606C78.5922 27.366 78.9162 27.03 79.1562 26.598C79.3962 26.154 79.5162 25.626 79.5162 25.014ZM93.7854 24.798C93.7854 25.158 93.7614 25.482 93.7134 25.77H86.4234C86.4834 26.49 86.7354 27.054 87.1794 27.462C87.6234 27.87 88.1694 28.074 88.8174 28.074C89.7534 28.074 90.4194 27.672 90.8154 26.868H93.5334C93.2454 27.828 92.6934 28.62 91.8774 29.244C91.0614 29.856 90.0594 30.162 88.8714 30.162C87.9114 30.162 87.0474 29.952 86.2794 29.532C85.5234 29.1 84.9294 28.494 84.4974 27.714C84.0774 26.934 83.8674 26.034 83.8674 25.014C83.8674 23.982 84.0774 23.076 84.4974 22.296C84.9174 21.516 85.5054 20.916 86.2614 20.496C87.0174 20.076 87.8874 19.866 88.8714 19.866C89.8194 19.866 90.6654 20.07 91.4094 20.478C92.1654 20.886 92.7474 21.468 93.1554 22.224C93.5754 22.968 93.7854 23.826 93.7854 24.798ZM91.1754 24.078C91.1634 23.43 90.9294 22.914 90.4734 22.53C90.0174 22.134 89.4594 21.936 88.7994 21.936C88.1754 21.936 87.6474 22.128 87.2154 22.512C86.7954 22.884 86.5374 23.406 86.4414 24.078H91.1754ZM98.1448 21.576C98.4688 21.048 98.8888 20.634 99.4048 20.334C99.9328 20.034 100.533 19.884 101.205 19.884V22.53H100.539C99.7468 22.53 99.1468 22.716 98.7388 23.088C98.3428 23.46 98.1448 24.108 98.1448 25.032V30H95.6248V20.028H98.1448V21.576ZM108.428 19.884C109.616 19.884 110.576 20.262 111.308 21.018C112.04 21.762 112.406 22.806 112.406 24.15V30H109.886V24.492C109.886 23.7 109.688 23.094 109.292 22.674C108.896 22.242 108.356 22.026 107.672 22.026C106.976 22.026 106.424 22.242 106.016 22.674C105.62 23.094 105.422 23.7 105.422 24.492V30H102.902V20.028H105.422V21.27C105.758 20.838 106.184 20.502 106.7 20.262C107.228 20.01 107.804 19.884 108.428 19.884Z" fill="white"/>
<path d="M121.931 23.556C122.639 23.688 123.221 24.042 123.677 24.618C124.133 25.194 124.361 25.854 124.361 26.598C124.361 27.27 124.193 27.864 123.857 28.38C123.533 28.884 123.059 29.28 122.435 29.568C121.811 29.856 121.073 30 120.221 30H114.803V17.436H119.987C120.839 17.436 121.571 17.574 122.183 17.85C122.807 18.126 123.275 18.51 123.587 19.002C123.911 19.494 124.073 20.052 124.073 20.676C124.073 21.408 123.875 22.02 123.479 22.512C123.095 23.004 122.579 23.352 121.931 23.556ZM117.323 22.62H119.627C120.227 22.62 120.689 22.488 121.013 22.224C121.337 21.948 121.499 21.558 121.499 21.054C121.499 20.55 121.337 20.16 121.013 19.884C120.689 19.608 120.227 19.47 119.627 19.47H117.323V22.62ZM119.861 27.948C120.473 27.948 120.947 27.804 121.283 27.516C121.631 27.228 121.805 26.82 121.805 26.292C121.805 25.752 121.625 25.332 121.265 25.032C120.905 24.72 120.419 24.564 119.807 24.564H117.323V27.948H119.861ZM125.721 24.978C125.721 23.97 125.919 23.076 126.315 22.296C126.723 21.516 127.269 20.916 127.953 20.496C128.649 20.076 129.423 19.866 130.275 19.866C131.019 19.866 131.667 20.016 132.219 20.316C132.783 20.616 133.233 20.994 133.569 21.45V20.028H136.107V30H133.569V28.542C133.245 29.01 132.795 29.4 132.219 29.712C131.655 30.012 131.001 30.162 130.257 30.162C129.417 30.162 128.649 29.946 127.953 29.514C127.269 29.082 126.723 28.476 126.315 27.696C125.919 26.904 125.721 25.998 125.721 24.978ZM133.569 25.014C133.569 24.402 133.449 23.88 133.209 23.448C132.969 23.004 132.645 22.668 132.237 22.44C131.829 22.2 131.391 22.08 130.923 22.08C130.455 22.08 130.023 22.194 129.627 22.422C129.231 22.65 128.907 22.986 128.655 23.43C128.415 23.862 128.295 24.378 128.295 24.978C128.295 25.578 128.415 26.106 128.655 26.562C128.907 27.006 129.231 27.348 129.627 27.588C130.035 27.828 130.467 27.948 130.923 27.948C131.391 27.948 131.829 27.834 132.237 27.606C132.645 27.366 132.969 27.03 133.209 26.598C133.449 26.154 133.569 25.626 133.569 25.014ZM144.094 19.884C145.282 19.884 146.242 20.262 146.974 21.018C147.706 21.762 148.072 22.806 148.072 24.15V30H145.552V24.492C145.552 23.7 145.354 23.094 144.958 22.674C144.562 22.242 144.022 22.026 143.338 22.026C142.642 22.026 142.09 22.242 141.682 22.674C141.286 23.094 141.088 23.7 141.088 24.492V30H138.568V20.028H141.088V21.27C141.424 20.838 141.85 20.502 142.366 20.262C142.894 20.01 143.47 19.884 144.094 19.884ZM156.373 30L152.989 25.752V30H150.469V16.68H152.989V24.258L156.337 20.028H159.613L155.221 25.032L159.649 30H156.373Z" fill="#5CE1E6"/>
<path d="M35.2597 33.7469C37.3852 31.4025 38.7678 28.4805 39.2327 25.3503C39.6975 22.2202 39.2237 19.0224 37.8712 16.1615C36.5187 13.3006 34.3482 10.9051 31.6342 9.27772C28.9202 7.65039 25.7846 6.8644 22.6238 7.01914C19.4631 7.17389 16.4193 8.26242 13.8772 10.1471C11.3351 12.0317 9.40903 14.6279 8.34244 17.6072C7.27586 20.5866 7.1167 23.8153 7.88509 26.8851C8.65349 29.9549 10.3149 32.7279 12.6593 34.8534L18.0328 28.9267C16.8606 27.8639 16.0299 26.4774 15.6457 24.9425C15.2615 23.4076 15.3411 21.7933 15.8743 20.3036C16.4076 18.814 17.3707 17.5159 18.6417 16.5735C19.9128 15.6312 21.4347 15.0869 23.015 15.0096C24.5954 14.9322 26.1632 15.3252 27.5202 16.1389C28.8772 16.9525 29.9625 18.1503 30.6387 19.5808C31.315 21.0112 31.5519 22.6101 31.3195 24.1752C31.087 25.7403 30.3957 27.2013 29.333 28.3735L35.2597 33.7469Z" fill="white"/>
<path d="M11 5L24.5 13.5" stroke="black"/>
<path d="M23.2112 13.101L37.1927 4.22588L34.2668 29.9541L23.2112 13.101ZM23.2112 13.101L12.8073 31.2741L11.2417 5.8222" stroke="black"/>
<circle cx="23.4062" cy="23" r="5" fill="#5CE1E6"/>
</svg>
